<svg width="166" height="204" viewBox="0 0 166 204" fill="none" xmlns="http://www.w3.org/2000/svg">
<mask id="mask0_2501_17004" style="mask-type:luminance" maskUnits="userSpaceOnUse" x="0" y="0" width="166" height="204">
<path d="M0 0H166V204H0V0Z" fill="white"/>
</mask>
<g mask="url(#mask0_2501_17004)">
<mask id="mask1_2501_17004" style="mask-type:luminance" maskUnits="userSpaceOnUse" x="0" y="0" width="167" height="204">
<path fill-rule="evenodd" clip-rule="evenodd" d="M88.6595 18.3006L155.714 80.4294C169.429 93.1336 169.429 113.843 155.714 126.547L91.8722 185.699L82.6467 177.154L72.4388 167.701L65.0309 160.841L61.1108 164.477L57.6229 167.701L55.8152 169.377L45.7742 160.071L46.2655 159.613L55.6482 150.921L50.5491 146.195L84.1991 115.016C91.0568 108.668 91.0568 98.3087 84.1991 91.9612L47.3364 57.8055L52.4453 53.0792L43.0528 44.3869L42.5615 43.9289L52.6025 34.6228L54.4201 36.299L57.898 39.5232L61.828 43.1686L69.2359 36.299L79.4439 26.8464L88.6595 18.3006ZM48.8199 200.721L53.5948 196.297L48.8199 191.873L44.0451 196.297L48.8199 200.721ZM27.2545 187.907L30.87 184.554L27.2545 181.202L23.6291 184.554L27.2545 187.907ZM32.2749 198.971L36.8042 194.776L32.2749 190.581L27.7457 194.776L32.2749 198.971ZM14.8261 190.884L18.196 187.76L14.8261 184.628L11.4463 187.76L14.8261 190.884ZM4.61809 185.397L6.01321 184.096L4.61809 182.805L3.21314 184.096L4.61809 185.397ZM14.492 180.359L16.5552 178.454L14.492 176.549L12.4386 178.454L14.492 180.359ZM24.4544 172.198L27.5001 169.377L24.4544 166.556L21.4087 169.377L24.4544 172.198ZM32.442 178.839L35.7333 175.789L32.442 172.739L29.1408 175.789L32.442 178.839ZM42.0703 158.477L47.415 153.513L42.0703 148.558L36.7157 153.513L42.0703 158.477ZM35.4876 166.254L39.1032 162.892L35.4876 159.54L31.8623 162.892L35.4876 166.254ZM44.2907 176.549L50.3035 170.98L44.2907 165.411L38.2779 170.98L44.2907 176.549ZM40.0955 189.821L45.1946 185.086L40.0955 180.359L34.9866 185.086L40.0955 189.821ZM49.6452 185.086L53.919 181.12L49.6452 177.154L45.3616 181.12L49.6452 185.086ZM59.3521 177.612L64.7066 172.656L59.3521 167.701L54.0074 172.656L59.3521 177.612ZM61.4939 193.934L68.5776 187.376L61.4939 180.817L54.4201 187.376L61.4939 193.934ZM67.0941 204L74.502 197.14L67.0941 190.27L59.6862 197.14L67.0941 204ZM77.0564 193.558L81.8313 189.134L77.0564 184.71L72.2816 189.134L77.0564 193.558ZM63.2231 176.247L73.4311 185.699L82.6467 177.154L92.8547 167.701L82.6467 158.248L72.4388 167.701L68.5187 171.337L65.0309 174.561L63.2231 176.247ZM45.6072 3.2791L50.3821 7.70313L45.6072 12.1272L40.8323 7.70313L45.6072 3.2791ZM24.0417 16.0932L27.6671 19.4456L24.0417 22.8071L20.4164 19.4456L24.0417 16.0932ZM29.0622 5.03772L33.5915 9.2236L29.0622 13.4186L24.533 9.2236L29.0622 5.03772ZM11.6134 13.1164L14.9833 16.2398L11.6134 19.3723L8.23362 16.2398L11.6134 13.1164ZM1.40538 18.6121L2.8005 19.9036L1.40538 21.2042L0.0102539 19.9036L1.40538 18.6121ZM11.2793 23.6406L13.3425 25.5458L11.2793 27.4601L9.22593 25.5458L11.2793 23.6406ZM21.2417 31.8017L24.2874 34.6228L21.2417 37.444L18.196 34.6228L21.2417 31.8017ZM29.2292 25.1703L32.5206 28.2204L29.2292 31.2705L25.9379 28.2204L29.2292 25.1703ZM38.8576 45.5318L44.2121 50.4871L38.8576 55.4424L33.5129 50.4871L38.8576 45.5318ZM32.2749 37.7462L35.9003 41.1078L32.2749 44.4601L28.6496 41.1078L32.2749 37.7462ZM41.078 27.451L47.0908 33.0199L41.078 38.5889L35.075 33.0199L41.078 27.451ZM36.8828 14.188L41.9818 18.9143L36.8828 23.6406L31.7837 18.9143L36.8828 14.188ZM46.4325 18.9143L50.7161 22.8804L46.4325 26.8464L42.1489 22.8804L46.4325 18.9143ZM56.1492 26.3885L61.4939 31.3438L56.1394 36.299L50.7947 31.3438L56.1492 26.3885ZM58.2812 10.0663L65.3649 16.6245L58.2812 23.1827L51.2073 16.6245L58.2812 10.0663ZM63.8814 0L71.2893 6.86045L63.8814 13.7301L56.4734 6.86045L63.8814 0ZM73.8437 10.451L78.6186 14.875L73.8437 19.299L69.0689 14.875L73.8437 10.451ZM60.0104 27.7624L70.2184 18.3006L79.4439 26.8464L89.6518 36.299L79.4439 45.7608L69.2359 36.299L65.306 32.6627L61.828 29.4386L60.0104 27.7624Z" fill="white"/>
</mask>
<g mask="url(#mask1_2501_17004)">
<path d="M0.0102539 0V204H166V0H0.0102539Z" fill="black"/>
</g>
</g>
</svg>
