<svg width="129" height="30" viewBox="0 0 129 30" fill="none" xmlns="http://www.w3.org/2000/svg">
<mask id="mask0_468_16918" style="mask-type:luminance" maskUnits="userSpaceOnUse" x="0" y="1" width="22" height="29">
<path d="M0.208496 1.36987H21.2085V29.3699H0.208496V1.36987Z" fill="white"/>
</mask>
<g mask="url(#mask0_468_16918)">
<mask id="mask1_468_16918" style="mask-type:luminance" maskUnits="userSpaceOnUse" x="0" y="1" width="22" height="29">
<path fill-rule="evenodd" clip-rule="evenodd" d="M11.4222 3.88029L19.9066 12.4063C21.641 14.1511 21.641 16.9949 19.9066 18.7345L11.8285 26.8542L10.667 25.6824L9.37533 24.3855L8.43783 23.4428L7.93783 23.9428L7.50033 24.3855L7.27116 24.6147L6.00033 23.3386L6.06283 23.2761L7.25033 22.0834L6.60449 21.4324L10.8597 17.1563C11.7295 16.2813 11.7295 14.8595 10.8597 13.9897L6.19824 9.30217L6.84408 8.65112L5.65658 7.45842L5.59408 7.39592L6.86491 6.11987L7.09408 6.34904L7.53158 6.79175L8.03158 7.29175L8.96908 6.34904L10.2607 5.05216L11.4222 3.88029ZM6.38574 28.9167L6.98991 28.3126L6.38574 27.7032L5.78158 28.3126L6.38574 28.9167ZM3.65658 27.1615L4.11491 26.698L3.65658 26.2397L3.19824 26.698L3.65658 27.1615ZM4.29199 28.6772L4.86491 28.099L4.29199 27.5261L3.71907 28.099L4.29199 28.6772ZM2.08366 27.5678L2.51074 27.1407L2.08366 26.7084L1.65658 27.1407L2.08366 27.5678ZM0.791993 26.8126L0.969076 26.6355L0.791993 26.4584L0.61491 26.6355L0.791993 26.8126ZM2.04199 26.1251L2.30241 25.8595L2.04199 25.599L1.78158 25.8595L2.04199 26.1251ZM3.30241 25.0053L3.68783 24.6147L3.30241 24.2292L2.91699 24.6147L3.30241 25.0053ZM4.31283 25.9115L4.72949 25.4949L4.31283 25.0782L3.89616 25.4949L4.31283 25.9115ZM5.53158 23.1199L6.20866 22.4376L5.53158 21.7605L4.85449 22.4376L5.53158 23.1199ZM4.69824 24.1876L5.15658 23.724L4.69824 23.2657L4.23991 23.724L4.69824 24.1876ZM5.81283 25.599L6.57324 24.8334L5.81283 24.073L5.05241 24.8334L5.81283 25.599ZM5.28158 27.422L5.92741 26.7709L5.28158 26.1251L4.63574 26.7709L5.28158 27.422ZM6.48991 26.7709L7.03158 26.2292L6.48991 25.6824L5.94824 26.2292L6.48991 26.7709ZM7.71908 25.7449L8.39616 25.0678L7.71908 24.3855L7.04199 25.0678L7.71908 25.7449ZM7.98991 27.9845L8.88574 27.0886L7.98991 26.1876L7.09408 27.0886L7.98991 27.9845ZM8.69824 29.3699L9.63574 28.4272L8.69824 27.4845L7.76074 28.4272L8.69824 29.3699ZM9.95866 27.9324L10.5628 27.3282L9.95866 26.7188L9.35449 27.3282L9.95866 27.9324ZM8.20866 25.5574L9.50033 26.8542L10.667 25.6824L11.9535 24.3855L10.667 23.0886L9.37533 24.3855L8.87533 24.8855L8.43783 25.3282L8.20866 25.5574ZM5.97949 1.81779L6.58366 2.42716L5.97949 3.03133L5.37533 2.42716L5.97949 1.81779ZM3.25033 3.57821L3.70866 4.03654L3.25033 4.50008L2.79199 4.03654L3.25033 3.57821ZM3.88574 2.05737L4.45866 2.6355L3.88574 3.20841L3.31283 2.6355L3.88574 2.05737ZM1.67741 3.16675L2.10449 3.59904L1.67741 4.02612L1.25033 3.59904L1.67741 3.16675ZM0.390952 3.92196L0.562826 4.09904L0.390952 4.27612L0.213867 4.09904L0.390952 3.92196ZM1.63574 4.61466L1.89616 4.87508L1.63574 5.1355L1.37533 4.87508L1.63574 4.61466ZM2.89616 5.73446L3.28158 6.11987L2.89616 6.50529L2.51074 6.11987L2.89616 5.73446ZM3.90658 4.823L4.32324 5.23966L3.90658 5.66154L3.48991 5.23966L3.90658 4.823ZM5.12533 7.61467L5.80241 8.29696L5.12533 8.97925L4.44824 8.29696L5.12533 7.61467ZM4.29199 6.54696L4.75033 7.0105L4.29199 7.46883L3.83366 7.0105L4.29199 6.54696ZM5.40658 5.1355L6.16699 5.90112L5.40658 6.66675L4.64616 5.90112L5.40658 5.1355ZM4.87533 3.31258L5.52116 3.96362L4.87533 4.61466L4.22949 3.96362L4.87533 3.31258ZM6.08366 3.96362L6.62533 4.5105L6.08366 5.05216L5.54199 4.5105L6.08366 3.96362ZM7.31283 4.98966L7.98991 5.67196L7.31283 6.34904L6.63574 5.67196L7.31283 4.98966ZM7.58366 2.75008L8.47949 3.65112L7.58366 4.55216L6.68783 3.65112L7.58366 2.75008ZM8.29199 1.36987L9.22949 2.30737L8.29199 3.25008L7.35449 2.30737L8.29199 1.36987ZM9.55241 2.80216L10.1566 3.41154L9.55241 4.01571L8.94824 3.41154L9.55241 2.80216ZM7.80241 5.17716L9.09408 3.88029L10.2607 5.05216L11.5472 6.34904L10.2607 7.64592L8.96908 6.34904L8.46908 5.84904L8.03158 5.40633L7.80241 5.17716Z" fill="white"/>
</mask>
<g mask="url(#mask1_468_16918)">
<path d="M0.213867 1.36987V29.3699H21.2087V1.36987H0.213867Z" fill="black"/>
</g>
</g>
<path d="M38.0125 11.0246C37.9136 11.1496 37.8146 11.2485 37.7209 11.3162C37.6375 11.3735 37.5177 11.3996 37.3667 11.3996C37.2 11.3996 37.0125 11.3319 36.8042 11.1912C36.6063 11.0558 36.3563 10.8996 36.0542 10.7329C35.7625 10.5662 35.398 10.4152 34.9709 10.2746C34.5386 10.1392 34.0125 10.0662 33.3875 10.0662C32.5542 10.0662 31.8146 10.2225 31.1792 10.5246C30.5386 10.8162 30.0021 11.2433 29.575 11.7954C29.1427 12.3527 28.8146 13.0246 28.5959 13.8162C28.3875 14.6079 28.2834 15.4985 28.2834 16.4829C28.2834 17.5142 28.3979 18.4308 28.6375 19.2329C28.8719 20.0246 29.2052 20.6912 29.6375 21.2329C30.0646 21.7746 30.5802 22.1912 31.1792 22.4829C31.7886 22.7642 32.4761 22.8996 33.2417 22.8996C33.9604 22.8996 34.5594 22.8162 35.0334 22.6496C35.5021 22.4725 35.8927 22.2746 36.2 22.0662C36.5021 21.8579 36.7625 21.6704 36.9709 21.5037C37.1792 21.3267 37.3771 21.2329 37.575 21.2329C37.825 21.2329 38.0177 21.3267 38.1584 21.5037L38.9917 22.6079C38.6271 23.0662 38.2104 23.4569 37.7417 23.7746C37.2677 24.0975 36.7625 24.3683 36.2209 24.5871C35.6792 24.811 35.1063 24.9725 34.5125 25.0662C33.9292 25.16 33.325 25.2121 32.7 25.2121C31.6427 25.2121 30.6584 25.0142 29.7417 24.6287C28.8354 24.2433 28.0438 23.6808 27.3667 22.9412C26.7 22.1912 26.1792 21.2746 25.8042 20.1912C25.4292 19.1079 25.2417 17.8735 25.2417 16.4829C25.2417 15.2225 25.4136 14.0558 25.7625 12.9829C26.1063 11.9152 26.6219 10.9933 27.3042 10.2121C27.9813 9.43604 28.8146 8.83187 29.8042 8.39958C30.7886 7.95687 31.9292 7.73291 33.2209 7.73291C34.4136 7.73291 35.4604 7.93083 36.3667 8.31624C37.2834 8.70687 38.0854 9.24854 38.7834 9.94124L38.0125 11.0246Z" fill="black"/>
<path d="M46.7726 7.73291C48.007 7.73291 49.1164 7.94124 50.106 8.35791C51.106 8.77458 51.9601 9.36833 52.6685 10.1287C53.3768 10.8787 53.9185 11.7954 54.2935 12.8787C54.6685 13.9517 54.856 15.1496 54.856 16.4829C54.856 17.8319 54.6685 19.0402 54.2935 20.1079C53.9185 21.1808 53.3768 22.0975 52.6685 22.8579C51.9601 23.6235 51.106 24.2069 50.106 24.6079C49.1164 25.009 48.007 25.2121 46.7726 25.2121C45.5226 25.2121 44.3976 25.009 43.3976 24.6079C42.3976 24.2069 41.5435 23.6235 40.8351 22.8579C40.1268 22.0975 39.5851 21.1808 39.2101 20.1079C38.8455 19.0402 38.6685 17.8319 38.6685 16.4829C38.6685 15.1496 38.8455 13.9517 39.2101 12.8787C39.5851 11.7954 40.1268 10.8787 40.8351 10.1287C41.5435 9.36833 42.3976 8.77458 43.3976 8.35791C44.3976 7.94124 45.5226 7.73291 46.7726 7.73291ZM46.7726 22.8787C48.4497 22.8787 49.6997 22.3267 50.5226 21.2121C51.356 20.0871 51.7726 18.5194 51.7726 16.5037C51.7726 14.4777 51.356 12.8996 50.5226 11.7746C49.6997 10.6496 48.4497 10.0871 46.7726 10.0871C45.9237 10.0871 45.1789 10.2329 44.5435 10.5246C43.9185 10.8162 43.3976 11.2329 42.981 11.7746C42.5643 12.3162 42.2518 12.9933 42.0435 13.7954C41.8351 14.6027 41.731 15.5037 41.731 16.5037C41.731 18.5194 42.1476 20.0871 42.981 21.2121C43.8143 22.3267 45.0747 22.8787 46.7726 22.8787Z" fill="black"/>
<path d="M56.0327 24.9829V8.00374H57.8452C58.2619 8.00374 58.5171 8.21208 58.616 8.62874L58.8452 10.3579C59.4702 9.59749 60.1681 8.97249 60.9494 8.48291C61.7254 7.98291 62.6265 7.73291 63.6577 7.73291C64.8088 7.73291 65.741 8.05583 66.4494 8.69124C67.1577 9.33187 67.6629 10.1912 67.9702 11.2746C68.2202 10.6652 68.5327 10.1392 68.9077 9.69124C69.2931 9.23291 69.7306 8.85791 70.2202 8.56624C70.7046 8.27458 71.2202 8.06624 71.7619 7.94124C72.3035 7.80583 72.8504 7.73291 73.4077 7.73291C74.2931 7.73291 75.0848 7.87874 75.7827 8.17041C76.491 8.45166 77.0848 8.86833 77.5744 9.42041C78.0588 9.96208 78.4285 10.6392 78.6785 11.4412C78.939 12.2329 79.0744 13.1444 79.0744 14.1704V24.9829H76.0744V14.1704C76.0744 12.8371 75.7827 11.8319 75.1994 11.1496C74.616 10.4569 73.7723 10.1079 72.6785 10.1079C72.189 10.1079 71.7254 10.2017 71.2827 10.3787C70.8348 10.5454 70.4494 10.8058 70.116 11.1496C69.7827 11.4829 69.5171 11.91 69.3244 12.4204C69.1265 12.9204 69.0327 13.5037 69.0327 14.1704V24.9829H66.0327V14.1704C66.0327 12.811 65.7515 11.7954 65.1994 11.1287C64.6577 10.4517 63.8556 10.1079 62.8035 10.1079C62.064 10.1079 61.3869 10.311 60.7619 10.7121C60.1369 11.1183 59.5588 11.66 59.0327 12.3371V24.9829H56.0327Z" fill="black"/>
<path d="M88.1921 7.73291C89.4264 7.73291 90.5358 7.94124 91.5254 8.35791C92.5254 8.77458 93.3796 9.36833 94.0879 10.1287C94.7962 10.8787 95.3379 11.7954 95.7129 12.8787C96.0879 13.9517 96.2754 15.1496 96.2754 16.4829C96.2754 17.8319 96.0879 19.0402 95.7129 20.1079C95.3379 21.1808 94.7962 22.0975 94.0879 22.8579C93.3796 23.6235 92.5254 24.2069 91.5254 24.6079C90.5358 25.009 89.4264 25.2121 88.1921 25.2121C86.9421 25.2121 85.8171 25.009 84.8171 24.6079C83.8171 24.2069 82.9629 23.6235 82.2546 22.8579C81.5462 22.0975 81.0046 21.1808 80.6296 20.1079C80.265 19.0402 80.0879 17.8319 80.0879 16.4829C80.0879 15.1496 80.265 13.9517 80.6296 12.8787C81.0046 11.7954 81.5462 10.8787 82.2546 10.1287C82.9629 9.36833 83.8171 8.77458 84.8171 8.35791C85.8171 7.94124 86.9421 7.73291 88.1921 7.73291ZM88.1921 22.8787C89.8691 22.8787 91.1191 22.3267 91.9421 21.2121C92.7754 20.0871 93.1921 18.5194 93.1921 16.5037C93.1921 14.4777 92.7754 12.8996 91.9421 11.7746C91.1191 10.6496 89.8691 10.0871 88.1921 10.0871C87.3431 10.0871 86.5983 10.2329 85.9629 10.5246C85.3379 10.8162 84.8171 11.2329 84.4004 11.7746C83.9837 12.3162 83.6712 12.9933 83.4629 13.7954C83.2546 14.6027 83.1504 15.5037 83.1504 16.5037C83.1504 18.5194 83.5671 20.0871 84.4004 21.2121C85.2337 22.3267 86.4941 22.8787 88.1921 22.8787Z" fill="black"/>
<path d="M112.014 8.00366L105.077 24.9828H102.41L95.4937 8.00366H97.9103C98.1603 8.00366 98.3582 8.06616 98.5145 8.19116C98.6655 8.31616 98.7697 8.462 98.827 8.62866L103.139 19.5453C103.275 19.962 103.395 20.3682 103.494 20.7537C103.587 21.1443 103.686 21.5401 103.785 21.9412C103.869 21.5401 103.957 21.1443 104.056 20.7537C104.166 20.3682 104.291 19.962 104.431 19.5453L108.785 8.62866C108.853 8.45158 108.962 8.30575 109.119 8.19116C109.285 8.06616 109.473 8.00366 109.681 8.00366H112.014Z" fill="black"/>
<path d="M115.336 8.00383V24.983H112.336V8.00383H115.336ZM115.961 2.67049C115.961 2.96216 115.898 3.23299 115.773 3.48299C115.659 3.73299 115.508 3.95695 115.315 4.14966C115.117 4.34758 114.888 4.50382 114.628 4.62883C114.362 4.74341 114.086 4.79549 113.794 4.79549C113.513 4.79549 113.242 4.74341 112.982 4.62883C112.732 4.50382 112.508 4.34758 112.315 4.14966C112.133 3.95695 111.987 3.73299 111.878 3.48299C111.763 3.23299 111.711 2.96216 111.711 2.67049C111.711 2.37882 111.763 2.10278 111.878 1.83716C111.987 1.57674 112.133 1.34758 112.315 1.14966C112.508 0.95695 112.732 0.805909 112.982 0.691325C113.242 0.58195 113.513 0.524658 113.794 0.524658C114.086 0.524658 114.362 0.58195 114.628 0.691325C114.888 0.805909 115.117 0.95695 115.315 1.14966C115.508 1.34758 115.659 1.57674 115.773 1.83716C115.898 2.10278 115.961 2.37882 115.961 2.67049Z" fill="black"/>
<path d="M127.529 10.7954C127.389 11.0454 127.18 11.1704 126.904 11.1704C126.738 11.1704 126.55 11.1079 126.342 10.9829C126.133 10.8579 125.868 10.7277 125.55 10.5871C125.243 10.436 124.873 10.2954 124.446 10.1704C124.029 10.035 123.529 9.96208 122.946 9.96208C122.446 9.96208 121.993 10.035 121.592 10.1704C121.186 10.2954 120.842 10.4725 120.55 10.6912C120.269 10.9152 120.055 11.1704 119.904 11.4621C119.764 11.7537 119.696 12.0767 119.696 12.4204C119.696 12.8683 119.821 13.2329 120.071 13.5246C120.321 13.8162 120.644 14.0662 121.05 14.2746C121.467 14.4829 121.936 14.6704 122.467 14.8371C122.993 15.0037 123.535 15.1808 124.092 15.3579C124.644 15.5402 125.18 15.7433 125.696 15.9621C126.222 16.186 126.696 16.4725 127.113 16.8162C127.529 17.1496 127.863 17.561 128.113 18.0454C128.363 18.535 128.488 19.1183 128.488 19.7954C128.488 20.5767 128.347 21.2954 128.071 21.9621C127.79 22.6287 127.373 23.2069 126.821 23.6912C126.279 24.1808 125.613 24.561 124.821 24.8371C124.029 25.1131 123.113 25.2537 122.071 25.2537C120.889 25.2537 119.811 25.0558 118.842 24.6704C117.883 24.285 117.071 23.7902 116.404 23.1912L117.113 22.0454C117.196 21.91 117.3 21.7954 117.425 21.7121C117.55 21.6287 117.706 21.5871 117.904 21.5871C118.097 21.5871 118.305 21.6704 118.529 21.8371C118.748 21.9933 119.019 22.1652 119.342 22.3579C119.66 22.5402 120.05 22.7121 120.508 22.8787C120.967 23.035 121.535 23.1079 122.217 23.1079C122.8 23.1079 123.305 23.035 123.738 22.8787C124.18 22.7277 124.54 22.5246 124.821 22.2746C125.113 22.0142 125.326 21.7121 125.467 21.3787C125.618 21.0454 125.696 20.6912 125.696 20.3162C125.696 19.8475 125.561 19.4569 125.3 19.1496C125.05 18.8475 124.717 18.5819 124.3 18.3579C123.894 18.1392 123.425 17.9517 122.883 17.7954C122.352 17.6287 121.811 17.4569 121.258 17.2746C120.717 17.0975 120.175 16.8944 119.633 16.6704C119.102 16.436 118.633 16.1444 118.217 15.7954C117.811 15.4517 117.488 15.0246 117.238 14.5246C116.988 14.0142 116.863 13.3944 116.863 12.6704C116.863 12.0194 116.993 11.3944 117.258 10.7954C117.519 10.2017 117.91 9.68083 118.425 9.23291C118.936 8.77458 119.571 8.4152 120.321 8.14958C121.071 7.87354 121.925 7.73291 122.883 7.73291C124.008 7.73291 125.014 7.9152 125.904 8.27458C126.79 8.62354 127.555 9.1027 128.196 9.71208L127.529 10.7954Z" fill="black"/>
</svg>
