<svg width="47" height="45" viewBox="0 0 47 45" fill="none" xmlns="http://www.w3.org/2000/svg">
<rect width="47" height="45" rx="9" fill="#1C1C1C"/>
<mask id="mask0_307_16638" style="mask-type:luminance" maskUnits="userSpaceOnUse" x="13" y="9" width="21" height="28">
<path d="M13 9H34V37H13V9Z" fill="white"/>
</mask>
<g mask="url(#mask0_307_16638)">
<mask id="mask1_307_16638" style="mask-type:luminance" maskUnits="userSpaceOnUse" x="13" y="9" width="21" height="28">
<path fill-rule="evenodd" clip-rule="evenodd" d="M24.2137 11.5104L32.6981 20.0365C34.4325 21.7812 34.4325 24.625 32.6981 26.3698L24.62 34.4844L23.4585 33.3125L22.1668 32.0156L21.2293 31.0729L20.7293 31.5729L20.2918 32.0156L20.0627 32.2448L18.7918 30.9688L18.8543 30.9063L20.0418 29.7135L19.396 29.0625L23.6512 24.7865C24.521 23.9115 24.521 22.4896 23.6512 21.6198L18.9897 16.9323L19.6356 16.2813L18.4481 15.0885L18.3856 15.026L19.6564 13.75L19.8856 13.9792L20.3231 14.4219L20.8231 14.9219L21.7606 13.9792L23.0522 12.6823L24.2137 11.5104ZM19.1772 36.5469L19.7814 35.9427L19.1772 35.3333L18.5731 35.9427L19.1772 36.5469ZM16.4481 34.7917L16.9064 34.3281L16.4481 33.8698L15.9897 34.3281L16.4481 34.7917ZM17.0835 36.3073L17.6564 35.7292L17.0835 35.1563L16.5106 35.7292L17.0835 36.3073ZM14.8752 35.1979L15.3022 34.7708L14.8752 34.3385L14.4481 34.7708L14.8752 35.1979ZM13.5835 34.4427L13.7606 34.2656L13.5835 34.0885L13.4064 34.2656L13.5835 34.4427ZM14.8335 33.7552L15.0939 33.4896L14.8335 33.2292L14.5731 33.4896L14.8335 33.7552ZM16.0939 32.6354L16.4793 32.2448L16.0939 31.8594L15.7085 32.2448L16.0939 32.6354ZM17.1043 33.5417L17.521 33.125L17.1043 32.7083L16.6877 33.125L17.1043 33.5417ZM18.3231 30.75L19.0002 30.0677L18.3231 29.3906L17.646 30.0677L18.3231 30.75ZM17.4897 31.8177L17.9481 31.3542L17.4897 30.8958L17.0314 31.3542L17.4897 31.8177ZM18.6043 33.2292L19.3647 32.4635L18.6043 31.7031L17.8439 32.4635L18.6043 33.2292ZM18.0731 35.0521L18.7189 34.401L18.0731 33.7552L17.4272 34.401L18.0731 35.0521ZM19.2814 34.401L19.8231 33.8594L19.2814 33.3125L18.7397 33.8594L19.2814 34.401ZM20.5106 33.375L21.1877 32.6979L20.5106 32.0156L19.8335 32.6979L20.5106 33.375ZM20.7814 35.6146L21.6772 34.7188L20.7814 33.8177L19.8856 34.7188L20.7814 35.6146ZM21.4897 37L22.4272 36.0573L21.4897 35.1146L20.5522 36.0573L21.4897 37ZM22.7502 35.5625L23.3543 34.9583L22.7502 34.349L22.146 34.9583L22.7502 35.5625ZM21.0002 33.1875L22.2918 34.4844L23.4585 33.3125L24.745 32.0156L23.4585 30.7188L22.1668 32.0156L21.6668 32.5156L21.2293 32.9583L21.0002 33.1875ZM18.771 9.44792L19.3752 10.0573L18.771 10.6615L18.1668 10.0573L18.771 9.44792ZM16.0418 11.2083L16.5002 11.6667L16.0418 12.1302L15.5835 11.6667L16.0418 11.2083ZM16.6772 9.6875L17.2502 10.2656L16.6772 10.8385L16.1043 10.2656L16.6772 9.6875ZM14.4689 10.7969L14.896 11.2292L14.4689 11.6563L14.0418 11.2292L14.4689 10.7969ZM13.1825 11.5521L13.3543 11.7292L13.1825 11.9063L13.0054 11.7292L13.1825 11.5521ZM14.4272 12.2448L14.6877 12.5052L14.4272 12.7656L14.1668 12.5052L14.4272 12.2448ZM15.6877 13.3646L16.0731 13.75L15.6877 14.1354L15.3022 13.75L15.6877 13.3646ZM16.6981 12.4531L17.1147 12.8698L16.6981 13.2917L16.2814 12.8698L16.6981 12.4531ZM17.9168 15.2448L18.5939 15.9271L17.9168 16.6094L17.2397 15.9271L17.9168 15.2448ZM17.0835 14.1771L17.5418 14.6406L17.0835 15.099L16.6252 14.6406L17.0835 14.1771ZM18.1981 12.7656L18.9585 13.5313L18.1981 14.2969L17.4377 13.5313L18.1981 12.7656ZM17.6668 10.9427L18.3127 11.5938L17.6668 12.2448L17.021 11.5938L17.6668 10.9427ZM18.8752 11.5938L19.4168 12.1406L18.8752 12.6823L18.3335 12.1406L18.8752 11.5938ZM20.1043 12.6198L20.7814 13.3021L20.1043 13.9792L19.4272 13.3021L20.1043 12.6198ZM20.3752 10.3802L21.271 11.2813L20.3752 12.1823L19.4793 11.2813L20.3752 10.3802ZM21.0835 9L22.021 9.94271L21.0835 10.8802L20.146 9.94271L21.0835 9ZM22.3439 10.4323L22.9481 11.0417L22.3439 11.6458L21.7397 11.0417L22.3439 10.4323ZM20.5939 12.8073L21.8856 11.5104L23.0522 12.6823L24.3387 13.9792L23.0522 15.276L21.7606 13.9792L21.2606 13.4792L20.8231 13.0365L20.5939 12.8073Z" fill="white"/>
</mask>
<g mask="url(#mask1_307_16638)">
<path d="M13.0054 9V37H34.0002V9H13.0054Z" fill="white"/>
</g>
</g>
</svg>
